[img]http://a.imageshack.us/img801/9421/jeezywhite.png[/img]

[img]http://a.imageshack.us/img594/6739/jeezywhite2.png[/img]


This is a new single from Atlantas Trap Star Young Jeezy. The video is from his upcoming album TM103 aka Thug Motivation 103 due in stores later this year. The video featured Yo Gotti and a lot of white things. Check out the video and dont forget to leave your comments, register in our forum and get all the latest releases, and dont forget to sign up to our RSS feed to be the first one to know of the latest releases. Enjoy the release!

[code]General
Complete name                    : Young Jeezy ft Yo Gotti - All White Everything [KingPinVideos].mpg
Format                           : MPEG-PS
File size                        : 90.8 MiB
Duration                         : 4mn 20s
Overall bit rate                 : 2 920 Kbps
Writing library                  : encoded by TMPGEnc 4.0 XPress Version. 4.7.4.299

Video
ID                               : 224 (0xE0)
Format                           : MPEG Video
Format version                   : Version 1
Format settings, BVOP            : Yes
Format settings, Matrix          : Default
Duration                         : 4mn 20s
Bit rate mode                    : Constant
Bit rate                         : 2 612 Kbps
Nominal bit rate                 : 2 700 Kbps
Width                            : 384 pixels
Height                           : 208 pixels
Display aspect ratio             : 16:9
Frame rate                       : 29.970 fps
Resolution                       : 8 bits
Scan type                        : Progressive
Bits/(Pixel*Frame)               : 1.091
Stream size                      : 81.2 MiB (89%)
Writing library                  : TMPGEnc XPress 4.7.4.299

Audio
ID                               : 192 (0xC0)
Format                           : MPEG Audio
Format version                   : Version 1
Format profile                   : Layer 2
Duration                         : 4mn 20s
Bit rate mode                    : Constant
Bit rate                         : 192 Kbps
Channel(s)                       : 2 channels
Sampling rate                    : 48.0 KHz
Stream size                      : 5.97 MiB (7%)
[/code]

Get the latest releases at KingPinVideos.com